HIERARCHY
ROOT Hips
{
	OFFSET 0.00000 0.00000 0.00000
	CHANNELS 6 Xposition Yposition Zposition Zrotation Yrotation Xrotation 
	JOINT LHipJoint
	{
		OFFSET 0 0 0
		CHANNELS 3 Zrotation Yrotation Xrotation
		JOINT LeftUpLeg
		{
			OFFSET 1.43652 -1.81092 0.91346
			CHANNELS 3 Zrotation Yrotation Xrotation
			JOINT LeftLeg
			{
				OFFSET 2.45984 -6.75837 0.00000
				CHANNELS 3 Zrotation Yrotation Xrotation
				JOINT LeftFoot
				{
					OFFSET 2.63718 -7.24559 0.00000
					CHANNELS 3 Zrotation Yrotation Xrotation
					JOINT LeftToeBase
					{
						OFFSET 0.19690 -0.54098 2.12239
						CHANNELS 3 Zrotation Yrotation Xrotation
						End Site
						{
							OFFSET 0.00000 -0.00000 1.10116
						}
					}
				}
			}
		}
	}
	JOINT RHipJoint
	{
		OFFSET 0 0 0
		CHANNELS 3 Zrotation Yrotation Xrotation
		JOINT RightUpLeg
		{
			OFFSET -1.35116 -1.81092 0.91345
			CHANNELS 3 Zrotation Yrotation Xrotation
			JOINT RightLeg
			{
				OFFSET -2.55576 -7.02189 0.00000
				CHANNELS 3 Zrotation Yrotation Xrotation
				JOINT RightFoot
				{
					OFFSET -2.61938 -7.19669 0.00000
					CHANNELS 3 Zrotation Yrotation Xrotation
					JOINT RightToeBase
					{
						OFFSET -0.32509 -0.89318 2.23646
						CHANNELS 3 Zrotation Yrotation Xrotation
						End Site
						{
							OFFSET -0.00000 -0.00000 1.19625
						}
					}
				}
			}
		}
	}
	JOINT LowerBack
	{
		OFFSET 0 0 0
		CHANNELS 3 Zrotation Yrotation Xrotation
		JOINT Spine
		{
			OFFSET 0.05193 2.08077 -0.11958
			CHANNELS 3 Zrotation Yrotation Xrotation
			JOINT Spine1
			{
				OFFSET 0.04960 2.08447 0.01967
				CHANNELS 3 Zrotation Yrotation Xrotation
				JOINT Neck
				{
					OFFSET 0 0 0
					CHANNELS 3 Zrotation Yrotation Xrotation
					JOINT Neck1
					{
						OFFSET -0.10699 1.82066 0.27584
						CHANNELS 3 Zrotation Yrotation Xrotation
						JOINT Head
						{
							OFFSET 0.14949 1.84747 -0.32279
							CHANNELS 3 Zrotation Yrotation Xrotation
							End Site
							{
								OFFSET 0.04969 1.88916 -0.14562
							}
						}
					}
				}
				JOINT LeftShoulder
				{
					OFFSET 0 0 0
					CHANNELS 3 Zrotation Yrotation Xrotation
					JOINT LeftArm
					{
						OFFSET 3.73629 1.27211 -0.12847
						CHANNELS 3 Zrotation Yrotation Xrotation
						JOINT LeftForeArm
						{
							OFFSET 5.10995 -0.00000 0.00000
							CHANNELS 3 Zrotation Yrotation Xrotation
							JOINT LeftHand
							{
								OFFSET 3.21207 -0.00000 0.00000
								CHANNELS 3 Zrotation Yrotation Xrotation
								JOINT LeftFingerBase
								{
									OFFSET 0 0 0
									CHANNELS 3 Zrotation Yrotation Xrotation
									JOINT LeftHandIndex1
									{
										OFFSET 0.63349 -0.00000 0.00000
										CHANNELS 3 Zrotation Yrotation Xrotation
										End Site
										{
											OFFSET 0.51074 -0.00000 0.00000
										}
									}
								}
								JOINT LThumb
								{
									OFFSET 0 0 0
									CHANNELS 3 Zrotation Yrotation Xrotation
									End Site
									{
										OFFSET 0.51853 -0.00000 0.51853
									}
								}
							}
						}
					}
				}
				JOINT RightShoulder
				{
					OFFSET 0 0 0
					CHANNELS 3 Zrotation Yrotation Xrotation
					JOINT RightArm
					{
						OFFSET -3.70251 1.29541 -0.35354
						CHANNELS 3 Zrotation Yrotation Xrotation
						JOINT RightForeArm
						{
							OFFSET -5.25109 -0.00000 0.00000
							CHANNELS 3 Zrotation Yrotation Xrotation
							JOINT RightHand
							{
								OFFSET -3.28364 -0.00000 0.00000
								CHANNELS 3 Zrotation Yrotation Xrotation
								JOINT RightFingerBase
								{
									OFFSET 0 0 0
									CHANNELS 3 Zrotation Yrotation Xrotation
									JOINT RightHandIndex1
									{
										OFFSET -0.59974 -0.00000 0.00000
										CHANNELS 3 Zrotation Yrotation Xrotation
										End Site
										{
											OFFSET -0.48353 -0.00000 0.00000
										}
									}
								}
								JOINT RThumb
								{
									OFFSET 0 0 0
									CHANNELS 3 Zrotation Yrotation Xrotation
									End Site
									{
										OFFSET -0.49091 -0.00000 0.49091
									}
								}
							}
						}
					}
				}
			}
		}
	}
}
MOTION
Frames: 9
Frame Time: .0083333
5.1395 15.3810 16.2428 -5.0412 -3.8581 -2.0949 0.0000 0.0000 0.0000 -6.9717 3.0499 -25.4920 10.9568 17.9139 62.6412 2.9210 -11.4181 -30.8396 0.5359 -4.6906 -13.0282 0.0000 0.0000 0.0000 18.2685 0.2081 -24.9564 -11.7293 -18.2738 65.1280 -3.8800 5.8809 -36.1618 -0.4336 4.2256 -11.7124 2.5696 0.7148 7.4721 2.9438 1.2915 0.2227 1.4671 0.6185 -3.9746 -10.2143 -7.4062 -21.2344 9.3405 -9.1743 17.8892 3.5630 -3.9061 10.1246 0.0000 -0.0000 0.0000 -66.1149 -47.2168 13.6649 81.2185 -59.7066 -52.4025 -0.0000 -0.0000 28.7130 -9.1630 9.9398 -1.5949 -7.1250 0.0000 -0.0000 -30.3187 38.0624 5.8409 0.0000 -0.0000 0.0000 50.9964 55.2825 7.7795 -65.7659 57.6602 -39.1775 0.0000 0.0000 13.0068 10.6767 -7.3385 -1.3795 7.1250 -0.0000 -0.0000 30.5031 -35.6488 7.9721
5.1403 15.3807 16.2436 -5.0560 -3.8543 -2.0929 0.0000 0.0000 0.0000 -6.9574 3.0486 -25.4936 10.9591 17.9150 62.6489 2.9225 -11.4155 -30.8475 0.5365 -4.6931 -13.0352 0.0000 0.0000 0.0000 18.2799 0.1934 -24.9582 -11.7291 -18.2738 65.1274 -3.8802 5.8920 -36.1615 -0.4330 4.2226 -11.7039 2.5732 0.7138 7.4704 2.9497 1.2906 0.2229 1.4713 0.6180 -3.9735 -10.2136 -7.4080 -21.2230 9.3470 -9.1801 17.8913 3.5645 -3.9083 10.1243 0.0000 0.0000 0.0000 -66.1172 -47.2288 13.6785 81.2122 -59.7062 -52.3970 -0.0000 -0.0000 28.7115 -9.1755 9.9383 -1.5968 -7.1250 0.0000 -0.0000 -30.3277 38.0600 5.8451 0.0000 0.0000 0.0000 51.0032 55.2793 7.7815 -65.7811 57.6633 -39.1904 0.0000 0.0000 13.0153 10.6789 -7.3471 -1.3814 7.1250 -0.0000 -0.0000 30.5077 -35.6561 7.9673
5.1411 15.3806 16.2446 -5.0685 -3.8509 -2.0918 0.0000 0.0000 0.0000 -6.9467 3.0487 -25.4924 10.9602 17.9156 62.6524 2.9238 -11.4133 -30.8547 0.5366 -4.6936 -13.0367 0.0000 0.0000 0.0000 18.2882 0.1770 -24.9581 -11.7278 -18.2732 65.1233 -3.8803 5.9034 -36.1603 -0.4326 4.2209 -11.6990 2.5757 0.7127 7.4674 2.9543 1.2894 0.2241 1.4748 0.6174 -3.9707 -10.2161 -7.4103 -21.2103 9.3568 -9.1864 17.8941 3.5676 -3.9106 10.1244 0.0000 0.0000 0.0000 -66.1183 -47.2387 13.6922 81.2063 -59.7058 -52.3920 -0.0000 -0.0000 28.7046 -9.1939 9.9375 -1.6000 -7.1250 0.0000 -0.0000 -30.3414 38.0577 5.8505 0.0000 0.0000 0.0000 51.0113 55.2759 7.7866 -65.7939 57.6659 -39.2012 0.0000 0.0000 13.0198 10.6832 -7.3605 -1.3844 7.1250 -0.0000 -0.0000 30.5156 -35.6675 7.9601
5.1421 15.3806 16.2457 -5.0784 -3.8502 -2.0921 0.0000 0.0000 0.0000 -6.9401 3.0514 -25.4878 10.9601 17.9155 62.6521 2.9252 -11.4090 -30.8621 0.5366 -4.6937 -13.0371 0.0000 0.0000 0.0000 18.2934 0.1609 -24.9544 -11.7255 -18.2722 65.1159 -3.8805 5.9164 -36.1592 -0.4323 4.2191 -11.6940 2.5781 0.7128 7.4638 2.9570 1.2897 0.2251 1.4763 0.6176 -3.9677 -10.2177 -7.4120 -21.1969 9.3664 -9.1925 17.8983 3.5706 -3.9128 10.1248 0.0000 -0.0000 0.0000 -66.1213 -47.2436 13.7102 81.2039 -59.7056 -52.3899 -0.0000 -0.0000 28.6947 -9.2173 9.9396 -1.6044 -7.1250 0.0000 -0.0000 -30.3601 38.0574 5.8552 0.0000 -0.0000 0.0000 51.0236 55.2687 7.7955 -65.8063 57.6684 -39.2117 0.0000 0.0000 13.0198 10.6873 -7.3736 -1.3875 7.1250 -0.0000 -0.0000 30.5233 -35.6787 7.9530
5.1429 15.3810 16.2475 -5.0839 -3.8492 -2.1023 0.0000 0.0000 0.0000 -6.9392 3.0559 -25.4648 10.9583 17.9146 62.6463 2.9273 -11.4043 -30.8735 0.5363 -4.6924 -13.0333 0.0000 0.0000 0.0000 18.2932 0.1382 -24.9347 -11.7218 -18.2705 65.1042 -3.8814 5.9315 -36.1616 -0.4319 4.2173 -11.6887 2.5770 0.7137 7.4669 2.9585 1.2910 0.2254 1.4783 0.6182 -3.9692 -10.2284 -7.4096 -21.1607 9.3917 -9.1946 17.8882 3.5817 -3.9129 10.1169 0.0000 0.0000 0.0000 -66.1326 -47.2362 13.7394 81.2030 -59.7056 -52.3891 -0.0000 -0.0000 28.6870 -9.2299 9.9426 -1.6072 -7.1250 0.0000 -0.0000 -30.3709 38.0590 5.8565 0.0000 0.0000 0.0000 51.0433 55.2519 7.8116 -65.8105 57.6693 -39.2152 0.0000 0.0000 13.0129 10.6831 -7.3727 -1.3867 7.1250 -0.0000 -0.0000 30.5200 -35.6782 7.9522
5.1439 15.3813 16.2492 -5.0895 -3.8508 -2.1102 0.0000 0.0000 0.0000 -6.9392 3.0595 -25.4441 10.9561 17.9136 62.6391 2.9290 -11.3990 -30.8823 0.5357 -4.6898 -13.0260 0.0000 0.0000 0.0000 18.2930 0.1199 -24.9172 -11.7177 -18.2687 65.0911 -3.8817 5.9465 -36.1610 -0.4313 4.2143 -11.6804 2.5773 0.7155 7.4692 2.9601 1.2935 0.2251 1.4795 0.6195 -3.9708 -10.2366 -7.4074 -21.1311 9.4101 -9.1961 17.8839 3.5899 -3.9130 10.1117 0.0000 -0.0000 0.0000 -66.1478 -47.2255 13.7689 81.2037 -59.7056 -52.3897 -0.0000 -0.0000 28.6804 -9.2367 9.9445 -1.6087 -7.1250 0.0000 -0.0000 -30.3767 38.0599 5.8571 0.0000 -0.0000 0.0000 51.0623 55.2357 7.8296 -65.8133 57.6699 -39.2176 0.0000 0.0000 13.0010 10.6744 -7.3695 -1.3850 7.1250 -0.0000 -0.0000 30.5123 -35.6761 7.9515
5.1450 15.3818 16.2509 -5.0943 -3.8537 -2.1177 0.0000 0.0000 0.0000 -6.9409 3.0616 -25.4229 10.9537 17.9123 62.6311 2.9307 -11.3904 -30.8913 0.5356 -4.6892 -13.0243 0.0000 0.0000 0.0000 18.2919 0.1045 -24.9001 -11.7135 -18.2669 65.0777 -3.8818 5.9598 -36.1595 -0.4309 4.2125 -11.6754 2.5777 0.7173 7.4720 2.9617 1.2961 0.2245 1.4806 0.6208 -3.9730 -10.2451 -7.4049 -21.1012 9.4274 -9.1967 17.8776 3.5980 -3.9129 10.1055 -0.0000 -0.0000 0.0000 -66.1653 -47.2107 13.7971 81.2045 -59.7057 -52.3904 -0.0000 -0.0000 28.6778 -9.2340 9.9456 -1.6084 -7.1250 0.0000 -0.0000 -30.3750 38.0611 5.8557 -0.0000 -0.0000 0.0000 51.0831 55.2207 7.8520 -65.8149 57.6702 -39.2189 0.0000 0.0000 12.9840 10.6600 -7.3644 -1.3821 7.1250 -0.0000 -0.0000 30.4999 -35.6728 7.9502
5.1462 15.3822 16.2520 -5.1006 -3.8573 -2.1195 0.0000 0.0000 0.0000 -6.9412 3.0591 -25.4115 10.9522 17.9116 62.6262 2.9319 -11.3781 -30.8978 0.5354 -4.6886 -13.0225 0.0000 0.0000 0.0000 18.2933 0.0959 -24.8916 -11.7099 -18.2653 65.0664 -3.8813 5.9692 -36.1557 -0.4309 4.2126 -11.6755 2.5795 0.7193 7.4726 2.9646 1.2992 0.2234 1.4822 0.6223 -3.9745 -10.2510 -7.4041 -21.0821 9.4362 -9.1978 17.8777 3.6023 -3.9134 10.1031 -0.0000 -0.0000 0.0000 -66.1839 -47.1973 13.8212 81.2037 -59.7056 -52.3897 -0.0000 -0.0000 28.6780 -9.2244 9.9426 -1.6062 -7.1250 0.0000 -0.0000 -30.3667 38.0594 5.8552 -0.0000 -0.0000 0.0000 51.1001 55.2097 7.8731 -65.8185 57.6709 -39.2220 0.0000 0.0000 12.9660 10.6446 -7.3602 -1.3793 7.1250 -0.0000 -0.0000 30.4871 -35.6704 7.9480
5.1475 15.3826 16.2526 -5.1078 -3.8618 -2.1146 0.0000 0.0000 0.0000 -6.9414 3.0515 -25.4101 10.9516 17.9113 62.6245 2.9326 -11.3633 -30.9009 0.5356 -4.6893 -13.0244 0.0000 0.0000 0.0000 18.2958 0.0944 -24.8923 -11.7070 -18.2640 65.0572 -3.8802 5.9757 -36.1495 -0.4309 4.2124 -11.6750 2.5840 0.7212 7.4689 2.9674 1.3021 0.2222 1.4824 0.6237 -3.9737 -10.2514 -7.4058 -21.0751 9.4337 -9.2009 17.8855 3.6011 -3.9153 10.1048 -0.0000 0.0000 0.0000 -66.1992 -47.1880 13.8377 81.2010 -59.7054 -52.3874 -0.0000 -0.0000 28.6780 -9.2141 9.9371 -1.6035 -7.1250 0.0000 -0.0000 -30.3567 38.0555 5.8561 -0.0000 0.0000 0.0000 51.1153 55.2038 7.8935 -65.8280 57.6728 -39.2300 0.0000 0.0000 12.9508 10.6353 -7.3625 -1.3785 7.1250 -0.0000 -0.0000 30.4810 -35.6732 7.9435
